<svg xmlns="http://www.w3.org/2000/svg" width="20" height="20" viewBox="0 0 20 20"><title>instagram</title><path d="M5.8 0h8.4a5.8 5.8 0 0 1 5.8 5.8v8.4a5.8 5.8 0 0 1-5.8 5.8h-8.4a5.8 5.8 0 0 1-5.8-5.8v-8.4a5.804 5.804 0 0 1 5.8-5.8zm-.2 2a3.598 3.598 0 0 0-3.6 3.6v8.8a3.6 3.6 0 0 0 3.6 3.6h8.8a3.6 3.6 0 0 0 3.6-3.6v-8.8a3.6 3.6 0 0 0-3.6-3.6zm9.983 1.5a1.25 1.25 0 1 1-1.25 1.25 1.25 1.25 0 0 1 1.25-1.25zm-5.25 1.5a5 5 0 1 1-5 5 5.002 5.002 0 0 1 5-5zm0 2a3 3 0 1 0 3 3 2.996 2.996 0 0 0-3-3z" fill="#333"/></svg>